PathFileType	4	(X/Y/Z)	 s03c0101.trc
DataRate	CameraRate	NumFrames	NumMarkers	Units	OrigDataRate	OrigDataStartFrame	OrigNumFrames
200	200	4	52	mm	200	1501	2000
Frame#	Time	racr			lacr			c7			jug			rlel			rdr			llel			ldr			s2			lic			ric			lasi			rasi			rpsi			lpsi			rgt			lgt			rth1			rth2			rth3			rth4			rlfc			rmfc			rsh1			rsh2			rsh3			rsh4			rlmal			rmmal			rcal			rtoe			rmt5			rmt1			lth1			lth2			lth4			lth3			llfc			lmfc			lsh1			lsh2			lsh3			lsh4			llmal			lmmal			lcal			ltoe			lmt1			lmt5			SBIKE			LBIKE			RBIKE			
		X1	Y1	Z1	X2	Y2	Z2	X3	Y3	Z3	X4	Y4	Z4	X5	Y5	Z5	X6	Y6	Z6	X7	Y7	Z7	X8	Y8	Z8	X9	Y9	Z9	X10	Y10	Z10	X11	Y11	Z11	X12	Y12	Z12	X13	Y13	Z13	X14	Y14	Z14	X15	Y15	Z15	X16	Y16	Z16	X17	Y17	Z17	X18	Y18	Z18	X19	Y19	Z19	X20	Y20	Z20	X21	Y21	Z21	X22	Y22	Z22	X23	Y23	Z23	X24	Y24	Z24	X25	Y25	Z25	X26	Y26	Z26	X27	Y27	Z27	X28	Y28	Z28	X29	Y29	Z29	X30	Y30	Z30	X31	Y31	Z31	X32	Y32	Z32	X33	Y33	Z33	X34	Y34	Z34	X35	Y35	Z35	X36	Y36	Z36	X37	Y37	Z37	X38	Y38	Z38	X39	Y39	Z39	X40	Y40	Z40	X41	Y41	Z41	X42	Y42	Z42	X43	Y43	Z43	X44	Y44	Z44	X45	Y45	Z45	X46	Y46	Z46	X47	Y47	Z47	X48	Y48	Z48	X49	Y49	Z49	X50	Y50	Z50	X51	Y51	Z51	X52	Y52	Z52	
1501	7.5050	475.474578	1407.530337	-84.163355	459.434190	1410.188172	-406.493422	397.297629	1503.646500	-245.903399	432.241859	1336.938437	-239.419261	532.244415	1146.227186	-0.005471	736.994220	938.974806	-46.823174	545.956003	1155.069740	-454.873114	748.602806	928.509134	-406.888758	-101.494055	1190.915886	-233.914005	74.703768	1214.529689	-416.036167	63.702953	1230.184137	-49.198635	94.014866	1143.146991	-374.129993	90.995298	1163.009068	-91.744258	-78.591877	1243.813527	-191.053162	-71.123517	1240.723760	-272.849251	15.833274	1138.286498	-31.958892	23.028323	1105.868385	-429.476616	135.129396	1042.306410	-2.781382	223.479515	1033.119722	2.979046	294.833265	984.218467	4.158718	236.768302	1065.310438	-10.843379	410.885497	911.394292	-15.397177	427.375803	901.792703	-138.023329	365.905116	748.921225	-4.003819	360.236148	662.162008	-25.538580	310.876365	589.499477	-33.708074	389.282369	657.286177	-50.607229	264.252503	467.877186	-62.027981	289.727972	484.670613	-147.796347	202.156782	419.878505	-105.606385	512.390910	429.199248	-108.121113	395.206127	405.091512	-37.429580	418.766518	424.643958	-151.191712	114.275682	982.814974	-462.001826	185.819511	935.004921	-472.399400	213.897766	958.570702	-466.125896	225.838167	854.907667	-471.279629	316.998455	758.204824	-464.129656	329.698369	748.294124	-337.915843	206.195711	624.752915	-470.166047	178.559071	547.839338	-446.321320	109.638189	490.257982	-431.121204	206.950596	532.689110	-423.581704	29.825441	399.157052	-399.625658	72.981534	398.612855	-315.144179	-44.510471	391.246230	-348.219225	217.865124	227.817560	-351.359951	135.841308	272.393241	-309.876020	102.291222	269.665566	-424.441624	-212.350737	946.810434	-228.258716	-4.539982	83.953740	-432.870472	-8.882394	80.954456	-32.534521	
1502	7.5100	475.460402	1407.429181	-84.073123	459.523509	1410.219444	-406.452253	397.286239	1503.653944	-245.826981	432.325451	1337.011292	-239.380493	532.210776	1146.167958	-0.003305	737.035313	938.959243	-46.801245	545.970477	1155.058035	-454.849946	748.620824	928.493932	-406.869081	-101.537580	1190.978109	-233.846014	74.649287	1214.507680	-416.021192	63.763156	1230.090390	-49.187961	93.899042	1143.040032	-374.072097	91.078257	1162.811493	-91.759510	-78.645763	1243.905142	-190.889378	-71.137522	1240.772976	-272.796906	15.876423	1138.014287	-31.937217	22.954388	1105.960954	-429.530469	135.060514	1041.618335	-2.814501	223.412257	1032.227116	2.918922	294.591009	983.142349	4.013454	236.803246	1064.345756	-10.861217	410.416396	910.151810	-15.555082	426.781156	900.561591	-138.193282	365.426438	747.671474	-4.117684	360.474271	661.034895	-24.986437	310.670248	588.147805	-33.772575	389.403505	656.345561	-50.316937	264.360676	466.440725	-62.246453	289.676942	483.285822	-147.819991	202.297391	418.408567	-105.403816	512.564376	428.474416	-108.143703	395.201865	403.976244	-37.285084	418.976375	423.566098	-151.187162	114.283678	982.989522	-462.197021	185.886398	935.651406	-473.211620	213.897916	958.891731	-465.990625	226.088794	855.300170	-471.487676	317.426673	758.759990	-464.477680	330.042929	748.900600	-338.180763	206.534049	625.405012	-470.413042	178.733538	548.583830	-446.425163	109.713316	491.133770	-431.257023	207.094446	533.433091	-423.601353	29.733081	400.204724	-399.672514	73.004315	399.526088	-315.229639	-44.645151	392.429737	-348.226443	218.657690	231.395904	-356.048393	135.689550	273.229931	-308.948473	101.964373	270.662520	-424.433907	-212.351829	946.817273	-228.270479	-4.542086	83.961943	-432.881049	-8.881093	80.946703	-32.537088	
1503	7.5150	475.440158	1407.401777	-84.015446	459.615141	1410.260018	-406.418769	397.280869	1503.662091	-245.767638	432.426684	1337.082711	-239.327468	532.163110	1146.108538	0.020488	737.058538	938.960833	-46.813193	545.991398	1155.064691	-454.833925	748.626754	928.492575	-406.842966	-101.569230	1191.031795	-233.760976	74.602498	1214.503957	-416.021278	63.884674	1230.004425	-49.164511	93.808772	1142.955708	-374.106093	91.169990	1162.629276	-91.857438	-78.641929	1243.936878	-190.806642	-71.160288	1240.805473	-272.718057	15.951706	1137.744562	-31.922078	22.858931	1106.080361	-429.581274	134.999477	1040.944896	-2.870733	223.273084	1031.290682	2.947315	294.399874	982.045437	3.898979	236.774806	1063.437059	-10.844632	409.915915	908.847305	-15.767619	426.225439	899.260946	-138.247443	364.948331	746.466116	-4.203357	359.524949	659.629084	-25.654785	310.576682	586.766297	-33.897567	388.645767	654.859254	-50.663401	264.392146	465.000091	-62.273785	289.700903	481.897544	-147.848152	202.407724	416.916484	-105.208977	512.738216	427.807243	-108.125436	395.684081	402.928707	-37.437329	419.120250	422.649142	-151.166739	114.315244	983.232054	-462.296621	185.980146	936.000839	-473.408028	213.953772	959.289577	-466.165724	226.325817	855.704263	-471.724489	317.772532	759.299507	-464.705954	330.396820	749.436886	-338.384228	206.882044	626.085226	-470.634827	178.991226	549.365637	-446.676295	109.855774	491.931745	-431.395704	207.287222	534.216236	-423.754458	29.653522	401.268461	-399.757609	72.816330	400.707085	-315.245142	-44.749941	393.704871	-348.261513	217.188225	229.447093	-351.428502	135.265025	274.284626	-309.905184	101.674887	271.608846	-424.429225	-212.359338	946.804948	-228.292078	-4.535048	83.966917	-432.866587	-8.876457	80.950066	-32.534107	
1504	7.5200	475.433728	1407.368467	-83.956224	459.688018	1410.284512	-406.368294	397.271693	1503.663886	-245.719229	432.509885	1337.141629	-239.283783	531.794014	1146.093903	0.280352	737.087524	938.934575	-46.792456	545.991349	1155.037103	-454.832952	748.672525	928.492138	-406.854450	-101.635950	1191.087501	-233.639315	74.494383	1214.511897	-415.993932	64.004078	1229.903082	-49.157917	93.696958	1142.858039	-374.129477	91.226840	1162.486112	-91.916581	-78.704750	1244.023055	-190.589547	-71.194982	1240.834854	-272.611987	16.009689	1137.464927	-31.847304	22.723069	1106.213959	-429.633081	134.898537	1040.264427	-2.897034	223.205830	1030.345357	2.900338	294.208156	980.967132	3.741779	236.746781	1062.527735	-10.855357	409.396348	907.639752	-16.008133	425.546807	898.008059	-138.449981	364.398315	745.289943	-4.380779	359.137238	658.422534	-25.717140	310.287621	585.450548	-33.988590	388.303742	653.666392	-50.688594	264.396334	463.546222	-62.309639	289.651411	480.560993	-147.882026	202.614967	415.285399	-105.129247	512.856643	427.164503	-108.044112	395.601628	401.861636	-37.276533	419.292136	421.624143	-151.152996	114.323273	983.465064	-462.434101	186.073049	936.388079	-473.644474	213.984224	959.726902	-466.333032	226.552963	856.244093	-471.967184	318.235098	760.012177	-465.079401	330.801063	750.191322	-338.726568	207.182533	626.715425	-470.873444	179.215591	550.094883	-446.851016	109.968195	492.784036	-431.550187	207.464508	534.923548	-423.893507	29.656414	402.298731	-399.824408	72.965220	401.668524	-315.316996	-44.763563	394.838108	-348.254866	216.791307	230.088710	-351.370814	135.182610	275.043818	-309.069989	101.406834	272.584543	-424.434749	-212.367933	946.805668	-228.285958	-4.545655	83.957118	-432.865027	-8.881874	80.951484	-32.533284	
